<svg width="63" height="70" viewBox="0 0 63 70" fill="none" xmlns="http://www.w3.org/2000/svg">
<g filter="url(#filter0_d)">
<path d="M27.0965 33L4.6602 26.4363C4.6602 26.4363 2.39767 25.515 2.09602 24.7474C1.79436 23.9797 2.24685 18.1451 2.85018 16.4563C3.45351 14.7674 7.37514 10.3147 8.43096 10.0076C9.48679 9.70055 23.0615 18.7594 25.3242 21.2164C27.5867 23.673 29.5475 27.7802 30 29.3156" fill="white"/>
<path d="M39.5117 25.075C39.5117 25.075 40.2272 18.4462 39.926 17.0588C39.6247 15.6713 35.1056 1.33511 34.2017 1.02649C33.2978 0.718165 28.0256 3.1847 27.1217 4.1096C26.2178 5.03454 22 12.2799 22 13.0507C22 13.8215 34.3979 24.1123 35 25.5" fill="white"/>
<path d="M28.3839 4.10954C27.4336 5.03455 23 12.279 23 13.0499C23 13.8207 35.9478 24.6122 36.5808 26L37 25.9191C36.9528 25.839 36.9001 25.757 36.7991 25.6358C36.6694 25.4803 36.4971 25.2906 36.2898 25.0759C35.8751 24.6466 35.3198 24.1105 34.6684 23.501C33.3655 22.2821 31.6875 20.7794 30.0294 19.2956C28.3713 17.8117 26.732 16.3466 25.5083 15.2048C24.8964 14.6339 24.3877 14.1431 24.0325 13.7716C23.8548 13.5858 23.7152 13.4279 23.6202 13.3062C23.5252 13.1845 23.4747 13.098 23.4747 13.0499C23.4747 12.9535 23.5456 12.757 23.6687 12.4833C23.7918 12.2096 23.9696 11.8592 24.1849 11.4581C24.6155 10.6559 25.1995 9.65047 25.8132 8.63874C26.4269 7.62701 27.0688 6.61043 27.6181 5.78906C27.8928 5.37835 28.1439 5.01491 28.3561 4.72674C28.5683 4.43858 28.7431 4.22522 28.8619 4.10959C28.9807 3.99396 29.1684 3.85352 29.4127 3.69815C29.6571 3.54278 29.9552 3.37054 30.2892 3.19229C30.9574 2.83577 31.771 2.44987 32.5828 2.10297C32.9886 1.92953 33.3936 1.76644 33.7815 1.6207C37.4799 0.231211 29.226 3.28988 28.3839 4.10954Z" fill="#FFD6D6"/>
<path d="M7.34541 10C6.30464 11.2788 3.11664 14.5533 2.84764 15.3305C2.24698 17.0666 1.79511 23.0655 2.09541 23.8546C3.40077 26.3133 22.0693 31.4368 26.5208 33L28 30.7519L6.03053 23.0852C4.64133 20.6837 4.27735 17.8662 4.27735 15.0727C4.49948 14.4307 7.46247 11.0598 8.27678 10H7.34541Z" fill="#FFD6D6"/>
<path d="M31.3454 2C30.3046 3.27879 26.769 5.22278 26.5 6C25.8993 7.73606 22.6997 12.7109 23 13.5C24.3054 15.9587 31 21.5 34.5 24.5L37 24C31.5 18.5 28.5 15.5 25.5 12C26 9.5 27.6857 5.55982 28.5 4.5L31.3454 2Z" fill="#FFD6D6"/>
<path d="M1.74921 25.1372C0.716119 22.031 0.660654 16.0453 2.1576 14.1819C3.65454 12.3184 5.98308 10.1726 8.50604 9C14.2439 10.8502 21.161 15.572 25.6957 20.5789C26.4559 21.4251 27.0475 22.2616 27.5401 23.0351C28.0327 23.8086 28.4251 24.5203 28.7551 25.1494C29.2201 26.0332 29.5576 26.7708 29.8037 27.3516C30.4574 28.8877 29.2687 28.1296 29.2687 29.4284C28.9035 28.8246 27.0773 23.7669 26.5521 23.0351C22.854 17.8819 14.528 12.2686 8.42936 10.3367C7.97903 10.1039 4.25723 14.3111 3.35449 15.6129C2.87833 16.61 3.05489 21.2969 3.48823 23.838C4.31983 24.7415 19.2626 29.8625 26.5521 31.8001C26.3303 32.4212 26.0531 33 26.0531 33C14.4103 29.9931 2.26848 25.7015 1.74921 25.1372Z" fill="black" stroke="black" stroke-width="0.52614"/>
<path d="M39.1512 24.9175C39.1861 24.3159 40.0365 22.7188 40.0792 21.7354C40.1139 20.9347 40.1496 20.036 40.1506 19.0838C40.1506 18.7342 40.1473 18.3832 40.1267 18.0351C40.1095 17.7927 40.0999 17.5843 40.054 17.4261C40.027 17.318 39.9889 17.1978 39.948 17.063C39.8823 16.8493 39.8128 16.6329 39.7417 16.4134C39.5344 15.7732 39.3175 15.1241 39.1002 14.4739C38.4778 12.6121 37.8529 10.7599 37.3323 9.14629C37.0356 8.2274 36.7755 7.38756 36.5676 6.66787C36.3969 6.07676 36.1232 5.09966 35.7257 3.93044C35.5389 3.3826 35.3344 2.79803 35.0658 2.21787C34.8992 1.86164 34.8457 1.61224 34.4233 1.67176C34.2444 1.69761 34.0624 1.73957 33.8771 1.79031C33.7916 1.81372 33.705 1.83929 33.6171 1.86627C32.9272 2.07916 32.2112 2.38453 31.453 2.74976C30.7645 3.08203 30.0475 3.46136 29.3139 3.90761C29.045 4.07143 28.7774 4.24117 28.5207 4.42634C28.3454 4.55575 28.1892 4.66741 28.0887 4.78651C28.0422 4.83776 27.9923 4.90735 27.9312 4.98994C27.849 5.10335 27.7676 5.22409 27.6841 5.35051C27.4635 5.68496 27.2456 6.03874 27.0214 6.40803C26.4861 7.29001 25.9334 8.23867 25.3466 9.25419C24.9553 9.93187 24.5494 10.6341 24.1408 11.3688C24.0183 11.5893 23.8988 11.8081 23.7828 12.0254C23.6042 12.3606 23.4365 12.6819 23.2949 12.9976C23.247 13.1055 23.2052 13.201 23.176 13.287C23.1607 13.3673 23.1466 13.367 23.1601 13.2894C23.1257 13.0923 23.1158 13.0173 23.1107 13.0635C23.1127 13.0719 23.1316 13.0963 23.1614 13.139C23.2584 13.2716 23.3804 13.4066 23.5127 13.5529C23.9642 14.0487 24.4366 14.5116 24.8998 14.9657C25.7024 15.7517 26.4682 16.4811 27.1897 17.1637C27.9111 17.8464 28.5882 18.4821 29.2178 19.0762C30.1662 19.9714 31.01 20.7684 31.7483 21.4762C32.4865 22.1841 33.1197 22.8024 33.6539 23.3337C33.9892 23.667 34.2875 23.9674 34.5472 24.2365C34.8069 24.5055 35.0281 24.743 35.2133 24.9478C35.424 25.1806 35.5924 25.3794 35.7148 25.5363C35.7847 25.6257 35.8433 25.7075 35.8877 25.7747C35.9269 25.8316 35.9601 25.8912 35.9815 25.9334C36.0028 25.9755 36.0132 26 36.0132 26C36.0132 26 36.0014 25.976 35.9777 25.9354C35.9539 25.8947 35.9173 25.8378 35.8737 25.7843C35.8245 25.721 35.7602 25.6447 35.6835 25.5617C35.5491 25.4161 35.3664 25.2332 35.1379 25.0187C34.9372 24.8301 34.6985 24.6116 34.4197 24.3642C34.1408 24.1167 33.8216 23.8404 33.4629 23.5325C32.8916 23.042 32.2174 22.4702 31.4344 21.8134C30.6513 21.1566 29.759 20.4151 28.7573 19.5773C28.0932 19.0218 27.3795 18.4257 26.6184 17.7821C25.8573 17.1386 25.0487 16.4476 24.1988 15.6974C23.7105 15.2668 23.2017 14.8157 22.6961 14.3133C22.5508 14.1697 22.3977 14.0136 22.2491 13.8324C22.2042 13.779 22.153 13.7107 22.1006 13.6236C22.0661 13.6034 22.026 13.4934 22 13.2895C22.0073 13.1065 22.0379 12.9812 22.0651 12.9171C22.1079 12.7746 22.1571 12.6427 22.2057 12.5207C22.3499 12.156 22.5141 11.8004 22.6811 11.4497C22.7904 11.22 22.9029 10.9891 23.0183 10.7569C23.4025 9.98427 23.8015 9.26039 24.1981 8.57589C24.7924 7.54992 25.3908 6.60454 25.9901 5.7365C26.2401 5.37429 26.4929 5.02129 26.7543 4.68386C26.8529 4.55647 26.9552 4.42841 27.0631 4.3023C27.1361 4.21607 27.2216 4.1201 27.3247 4.02234C27.5454 3.82117 27.7662 3.68329 27.9623 3.57132C28.2689 3.39068 28.5725 3.23564 28.8675 3.09303C29.6728 2.70324 30.4441 2.38803 31.1703 2.10572C31.9689 1.79483 32.7222 1.52101 33.4387 1.29268C33.5399 1.2603 33.6412 1.22851 33.7429 1.19824C33.9312 1.14216 34.123 1.09114 34.3197 1.05141C34.4307 1.02868 34.5494 1.0101 34.6761 1.00318C34.764 0.995312 34.8738 1.00066 35.0009 1.03502C35.1183 1.08243 35.1918 1.13434 35.224 1.17547C35.2903 1.23922 35.3424 1.3018 35.3843 1.35782C35.519 1.53439 35.6283 1.71378 35.7274 1.88168C36.0764 2.46945 36.3715 3.04307 36.6413 3.56108C37.2257 4.68212 37.6923 5.60221 37.9127 6.18076C38.18 6.88225 38.4637 7.72449 38.754 8.65553C39.2601 10.2779 39.784 12.1796 40.263 14.1038C40.4297 14.7731 40.5918 15.4463 40.7417 16.113C40.793 16.3412 40.8432 16.5696 40.89 16.7977C40.918 16.9343 40.9475 17.0759 40.9697 17.2226C41.011 17.5009 41.0019 17.7629 40.9898 18.009C40.973 18.3859 40.9382 18.7517 40.8993 19.107C40.7932 20.0761 40.7361 24.1518 40.6053 24.9478C40.0792 24.6311 39.1468 24.9932 39.1512 24.9175Z" fill="black" stroke="black" stroke-width="0.52614"/>
<path d="M29.922 27.0007C25.9769 29.0553 21.5762 34.0289 21.0284 40.4492C20.3576 48.3128 31.7179 55.5124 38.9141 54.9713C42.2417 54.7213 45.4124 53.4421 48 51.4237C47.8218 51.521 47.6198 48.5379 47.4695 48.6172C47.0712 48.8274 46.6624 49.018 46.2463 49.1878C45.8301 49.3577 45.406 49.5066 44.9752 49.6339C44.5444 49.7612 44.1071 49.8671 43.6648 49.9496C43.2224 50.0322 42.7742 50.0906 42.3234 50.1263C41.9514 50.1558 41.5661 50.1597 41.1704 50.1379C40.7748 50.1161 40.3683 50.0689 39.9556 49.9989C39.5429 49.9289 39.1248 49.836 38.7015 49.7208C38.2782 49.6056 37.8493 49.4698 37.422 49.3124C36.9947 49.155 36.5673 48.976 36.1426 48.7794C35.7178 48.5828 35.2957 48.3662 34.88 48.1335C34.4643 47.9007 34.0569 47.6521 33.6568 47.3861C33.2567 47.1202 32.8649 46.8393 32.4869 46.5432C32.109 46.2472 31.7451 45.9366 31.3958 45.6134C31.0466 45.2902 30.7116 44.9526 30.3976 44.6054C30.0835 44.2581 29.7897 43.8991 29.5174 43.5307C29.2451 43.1624 28.9962 42.7846 28.7722 42.3981C28.5482 42.0117 28.348 41.6178 28.1789 41.2163C28.0943 41.0156 28.0179 40.812 27.9483 40.6081C27.8786 40.4041 27.8166 40.2007 27.7627 39.994C27.7088 39.7872 27.6622 39.5775 27.6249 39.3683C27.5876 39.1591 27.5604 38.9481 27.5405 38.7369C27.5206 38.5256 27.5085 38.3155 27.5068 38.1025C27.505 37.8895 27.5119 37.6737 27.5293 37.4594C27.564 37.0309 27.6183 36.6118 27.6896 36.1994C27.7608 35.787 27.8493 35.381 27.9539 34.9857C28.0585 34.5905 28.1794 34.2042 28.3138 33.8271C28.4483 33.45 28.5971 33.0843 28.7581 32.7264C28.9192 32.3685 29.094 32.0184 29.2784 31.6807C29.4627 31.3431 29.6562 31.0181 29.8605 30.7017C30.0647 30.3853 30.278 30.0776 30.4988 29.7834C30.7196 29.4893 30.9481 29.2085 31.1821 28.9376C31.4162 28.6668 31.6553 28.4079 31.8992 28.1613C32.1431 27.9148 32.3911 27.6786 32.6416 27.4575C32.7723 27.3421 29.7627 27.1249 29.922 27.0007Z" fill="#3D3B3C"/>
<path d="M24.0399 40.1378C24.18 41.5662 24.6968 42.957 25.4853 44.2633C25.7482 44.6987 26.0403 45.1244 26.3599 45.5395C26.6794 45.9546 27.0242 46.3591 27.3928 46.7504C27.7614 47.1418 28.1544 47.5221 28.5644 47.8862C29.7941 48.9787 31.1896 49.939 32.6532 50.7258C33.1411 50.9881 33.6365 51.2321 34.135 51.4536C36.9227 52.6924 39.9299 53.3158 42.9628 52.7722C50.352 51.4479 54.767 44.0814 53.8828 36.7561C52.925 28.82 42.2019 22.281 32.6532 25.5C25.9035 27.0649 23.4146 33.765 24.0399 40.1378Z" fill="#7F7979"/>
<path d="M38.5 24C36.665 23.9937 33.3388 24.89 31.5 25.5C30.7229 25.6592 30.3838 26.1051 29.5 26.5636C29.3412 26.6869 27.6575 27.8686 27.5 28C33.0836 25.0287 40.1936 25.1468 45.7553 28.1138C46.2601 28.3831 46.7485 28.6732 47.2162 28.9846C47.6839 29.296 48.1331 29.6276 48.5585 29.9774C48.9839 30.3273 49.3839 30.6946 49.7618 31.0791C50.1396 31.4637 50.4943 31.8644 50.8193 32.2798C51.1443 32.6951 51.4404 33.127 51.7074 33.5695C51.9744 34.012 52.212 34.4659 52.4158 34.9317C52.6195 35.3975 52.789 35.8745 52.9242 36.3599C52.9918 36.6026 53.051 36.8485 53.1005 37.0955C53.15 37.3424 53.1917 37.5903 53.2225 37.8409C53.268 38.2122 53.3012 38.5808 53.3208 38.9459C53.3404 39.311 53.3465 39.6728 53.3411 40.0311C53.3357 40.3893 53.3165 40.7422 53.2869 41.0931C53.2573 41.444 53.2177 41.7924 53.1649 42.1354C53.112 42.4784 53.0468 42.8168 52.9717 43.1513C52.8965 43.4858 52.8106 43.8154 52.7141 44.1408C52.6175 44.4663 52.5091 44.7882 52.392 45.104C52.275 45.4197 52.1492 45.7319 52.0124 46.0374C51.8757 46.343 51.7306 46.6432 51.5752 46.9379C51.4197 47.2326 51.2536 47.5187 51.0803 47.8021C51.0393 47.8692 50.9935 47.9336 50.9515 48C53.1964 44.9616 54.3996 41.1158 53.88 36.8814C53.0807 30.3651 47.9514 24.5274 40 24.5L38.5 24Z" fill="#C1BDB3"/>
<path d="M32.8243 25.0776C32.8243 25.0776 33.007 25.007 33.3514 24.8924C33.6958 24.7778 34.2026 24.6203 34.8538 24.4674C35.5051 24.3144 36.3016 24.167 37.2165 24.08C38.1313 23.9929 39.1648 23.967 40.2743 24.0526C41.3518 24.1356 42.5002 24.3226 43.6671 24.6407C44.8339 24.9589 46.0187 25.4085 47.1622 25.9962C48.1593 26.5074 49.1268 27.1265 50.0171 27.8441C50.9076 28.5617 51.7204 29.3777 52.4176 30.2696C53.125 31.1737 53.7016 32.1618 54.1211 33.1739C54.5407 34.186 54.8028 35.2214 54.9119 36.2224C55.0645 37.6595 55.0057 38.9895 54.8363 40.1118C54.722 40.8688 54.4959 41.9911 54.0216 43.2899C53.6988 44.1722 53.2613 45.1311 52.6925 46.0983C52.1237 47.0655 51.4237 48.0401 50.6047 48.9574C50.3711 49.2191 50.128 49.4763 49.8764 49.7278C49.2935 50.3103 48.6482 50.8863 47.927 51.4389C47.2057 51.9915 46.4083 52.5209 45.5235 53.0004C44.6526 53.4725 43.6965 53.8957 42.6529 54.2345C41.6092 54.5732 40.4778 54.8277 39.2673 54.9491C38.3099 55.043 37.3126 55.0042 36.306 54.8557C35.2732 54.7043 34.2219 54.442 33.1689 54.078C31.487 53.4973 29.7796 52.6637 28.1327 51.5385C27.7828 51.2994 27.4433 51.0532 27.1143 50.801C26.1642 50.0757 25.2945 49.2905 24.5289 48.4569C23.7633 47.6234 23.1018 46.7416 22.5567 45.8229C21.998 44.8797 21.5729 43.8907 21.3085 42.8879C21.0316 41.836 20.9438 40.7748 21.0342 39.7642C21.1318 38.6942 21.3322 37.6848 21.6014 36.7449C21.8707 35.805 22.2088 34.9343 22.5888 34.1352C23.0268 33.2143 23.5174 32.3878 24.0278 31.6475C24.5383 30.9072 25.0688 30.2531 25.5959 29.6742C26.2504 28.9549 26.9012 28.3492 27.5211 27.8405C28.141 27.3318 28.7302 26.9197 29.27 26.583C29.8316 26.2307 30.3462 25.9576 30.7957 25.7514C31.2452 25.5453 31.6297 25.4047 31.9393 25.306C32.2488 25.2073 32.4834 25.1498 32.6394 25.1141C32.7953 25.0784 32.8728 25.0643 32.8728 25.0643C32.8728 25.0643 32.7961 25.0829 32.6424 25.1271C32.4887 25.1712 32.2579 25.2412 31.9555 25.3553C31.6531 25.4695 31.2791 25.6285 30.8448 25.8547C30.4104 26.0809 29.9157 26.3756 29.377 26.7493C28.8599 27.1068 28.2985 27.5396 27.712 28.0668C27.1255 28.594 26.5137 29.216 25.9031 29.9466C25.4116 30.5346 24.9208 31.1942 24.4539 31.9338C23.9869 32.6733 23.5435 33.4927 23.1557 34.397C22.8195 35.1812 22.5265 36.0299 22.3021 36.9385C22.0777 37.8472 21.9218 38.816 21.8659 39.8333C21.8154 40.7466 21.9308 41.703 22.2127 42.6462C22.482 43.548 22.9034 44.4386 23.4465 45.2938C23.9772 46.1304 24.62 46.9305 25.3623 47.687C26.1045 48.4435 26.9465 49.1562 27.8641 49.8188C28.183 50.0483 28.5113 50.2716 28.8488 50.4878C30.4343 51.5034 32.0393 52.2763 33.6133 52.8406C34.5956 53.1924 35.5629 53.4601 36.5087 53.6301C37.4304 53.795 38.3264 53.8717 39.1809 53.8278C40.3093 53.7711 41.3818 53.5947 42.3845 53.334C43.3871 53.0734 44.3201 52.7284 45.1761 52.3249C46.0562 51.9099 46.8559 51.4332 47.5734 50.9175C48.291 50.4019 48.9266 49.8472 49.4805 49.2709C49.7072 49.035 49.9236 48.7927 50.1293 48.5457C50.8914 47.6302 51.5014 46.6485 51.9637 45.6885C52.4261 44.7286 52.7416 43.7913 52.9519 42.9471C53.1083 42.3213 53.2076 41.7459 53.2766 41.2416C53.3457 40.7373 53.3849 40.304 53.4192 39.9568C53.5203 38.9321 53.5552 37.7203 53.4216 36.3995C53.3377 35.5414 53.1261 34.6396 52.7779 33.7386C52.4298 32.8376 51.9455 31.9379 51.3433 31.0946C50.7483 30.262 50.0397 29.4818 49.2493 28.7771C48.4588 28.0724 47.5868 27.4435 46.6762 26.9051C45.6329 26.2889 44.5363 25.7914 43.4417 25.4144C42.3472 25.0373 41.2552 24.7807 40.2182 24.6261C39.1527 24.4672 38.1452 24.4176 37.2437 24.4349C36.3422 24.4522 35.5465 24.5358 34.8905 24.6358C34.2345 24.7357 33.7179 24.8511 33.3655 24.9369C33.0131 25.0227 32.8243 25.0776 32.8243 25.0776Z" fill="black" stroke="black" stroke-width="0.368298"/>
<path d="M47.0185 27.0578C53.2457 26.5704 55.4816 29.2155 55.957 33.1031C56.5264 37.7591 51.3263 41.6715 47.1262 41.987C43.6601 42.2472 39.6955 38.5701 40.0185 34.7853C40.3416 31.0005 44.9341 27.2209 47.0185 27.0578Z" fill="white"/>
<path d="M47.8208 27.0028C47.4478 27.0096 47.0612 27.0287 46.6563 27.0604C45.2295 27.172 42.6776 29.7008 41 32C41.2275 31.7362 41.45 30.6816 41.6932 30.4403C42.07 30.0662 42.4625 29.7196 42.8543 29.4118C43.246 29.1039 43.6363 28.8335 44.0154 28.6065C44.3944 28.3796 44.7614 28.1966 45.1002 28.0652C45.2696 27.9995 45.4312 27.9486 45.5854 27.9096C45.7396 27.8705 45.8866 27.8424 46.0221 27.8318C46.427 27.8001 46.8171 27.7843 47.1901 27.7776C47.5631 27.7709 47.9188 27.7738 48.261 27.7912C48.6033 27.8085 48.9327 27.8388 49.2453 27.8791C49.558 27.9195 49.8553 27.9723 50.1395 28.0348C50.4237 28.0972 50.6937 28.1677 50.9505 28.2513C51.2074 28.3349 51.4512 28.4317 51.6818 28.5355C51.9125 28.6393 52.1278 28.7508 52.3334 28.8738C52.539 28.9968 52.734 29.1284 52.9157 29.2697C53.0973 29.4109 53.2663 29.5611 53.4252 29.7196C53.584 29.8782 53.7317 30.0455 53.8688 30.2204C54.006 30.3952 54.1334 30.5782 54.2501 30.7684C54.3667 30.9587 54.4717 31.1558 54.5689 31.3605C54.6661 31.5652 54.7568 31.7785 54.8358 31.9966C54.9147 32.2147 54.9819 32.4392 55.0437 32.6699C55.1673 33.1311 55.2592 33.6158 55.321 34.1213C55.358 34.424 55.3708 34.7253 55.3626 35.0212C55.3544 35.3172 55.3258 35.6098 55.276 35.8975C55.2261 36.1852 55.1562 36.4687 55.068 36.7467C54.9798 37.0248 54.8722 37.2952 54.7491 37.5621C54.6261 37.829 54.4877 38.0926 54.3332 38.347C54.1973 38.5708 54.0473 38.787 53.8896 39C55.3306 37.4281 56.2136 35.4625 55.9553 33.3498C55.4916 29.5587 53.4161 26.9022 47.8208 27.0028Z" fill="white" fill-opacity="0.35"/>
<path d="M47.2881 27.166C47.2881 27.166 47.3917 27.1508 47.584 27.127C47.7763 27.1033 48.0575 27.0708 48.4138 27.0437C48.7701 27.0166 49.2017 26.9949 49.6932 27.0011C50.1847 27.0072 50.7361 27.0415 51.329 27.1336C51.7983 27.2054 52.2955 27.3205 52.7969 27.5C53.2984 27.6794 53.8039 27.9235 54.2843 28.2504C54.6751 28.5216 55.0349 28.8456 55.3507 29.2104C55.6665 29.5752 55.9384 29.9806 56.157 30.4104C56.6367 31.3628 56.8722 32.375 56.9663 33.3C57.0301 33.9167 56.9994 34.5064 56.9075 35.0396C56.8157 35.5728 56.663 36.0495 56.4858 36.4532C56.4185 36.6066 56.3313 36.7887 56.2211 36.9905C56.0044 37.3862 55.7023 37.8575 55.311 38.3447C54.9198 38.832 54.4392 39.3347 53.8949 39.811V39.811C53.5882 40.0801 53.2614 40.3428 52.9198 40.5945C52.333 41.0268 51.6754 41.4687 50.9056 41.8748C50.4525 42.1148 49.9577 42.3433 49.4133 42.5354C48.8689 42.7275 48.2749 42.8834 47.6266 42.9656C47.1677 43.0193 46.69 43.0105 46.2066 42.9367C45.7232 42.8629 45.2341 42.7239 44.7584 42.5215C43.8638 42.145 42.9922 41.5601 42.2358 40.7743C42.1878 40.7248 42.1402 40.6743 42.0931 40.6231C41.3983 39.8669 40.8688 39.022 40.5134 38.1517C40.3014 37.6348 40.1559 37.1062 40.0755 36.5834C39.9951 36.0607 39.9798 35.5439 40.0253 35.0456C40.0841 34.4555 40.2193 33.91 40.3966 33.4101C40.5739 32.9102 40.7935 32.4559 41.0309 32.0454V32.0454C41.3297 31.5254 41.6543 31.0679 41.9831 30.6619C42.312 30.256 42.6454 29.9016 42.9696 29.5894C43.3856 29.1869 43.7905 28.8497 44.1709 28.5688C44.5513 28.2879 44.9073 28.0631 45.2293 27.8816C45.5366 27.7029 45.8263 27.56 46.0825 27.4569C46.3386 27.3539 46.5612 27.289 46.7413 27.2478C46.9215 27.2067 47.0592 27.1884 47.1509 27.1783C47.2426 27.1682 47.2882 27.1661 47.2882 27.1661C47.2882 27.1661 47.2427 27.1732 47.1526 27.1925C47.0625 27.2119 46.9278 27.2439 46.7547 27.3019C46.5816 27.36 46.3704 27.4451 46.1305 27.5703C45.8906 27.6955 45.6224 27.8623 45.3351 28.065C45.0369 28.2719 44.7104 28.5226 44.3654 28.8279C44.0204 29.1332 43.6571 29.4932 43.2872 29.9147C42.9998 30.2421 42.7078 30.6078 42.4255 31.0176C42.1433 31.4275 41.8707 31.8815 41.6297 32.3854C41.4399 32.7829 41.2696 33.2131 41.1416 33.6712C41.0136 34.1293 40.9278 34.6155 40.9161 35.1208C40.9045 35.543 40.9481 35.9785 41.047 36.4166C41.1459 36.8547 41.3003 37.2955 41.5067 37.7238C41.8573 38.4496 42.3605 39.1441 42.9954 39.7574C43.0383 39.7989 43.0814 39.8397 43.1247 39.88C43.8126 40.5165 44.5399 41.004 45.2725 41.3397C46.0483 41.6911 46.823 41.8827 47.543 41.8649C48.1086 41.8542 48.6505 41.7796 49.163 41.6659C49.6755 41.5522 50.1585 41.3991 50.6065 41.2219C51.3758 40.9163 52.0417 40.5356 52.5867 40.1023C52.8964 39.8561 53.1792 39.5876 53.4317 39.3091V39.3091C53.8915 38.801 54.248 38.2603 54.505 37.7621C54.7621 37.2638 54.921 36.8086 55.0322 36.449C55.0884 36.2672 55.1332 36.1094 55.175 35.9807C55.2839 35.6453 55.3892 35.2623 55.4604 34.8399C55.5315 34.4175 55.5682 33.9559 55.5371 33.4729C55.481 32.6561 55.357 31.7888 55.0333 30.9808C54.7499 30.2648 54.2946 29.5873 53.7056 29.0665C53.3434 28.7436 52.9333 28.4777 52.5073 28.2603C52.0814 28.0429 51.64 27.8739 51.2119 27.7423C50.669 27.5755 50.1467 27.4644 49.6728 27.386C49.199 27.3077 48.7736 27.262 48.4193 27.2318C48.0651 27.2016 47.7818 27.187 47.5876 27.1781C47.3934 27.1692 47.2881 27.1661 47.2881 27.1661L47.2881 27.166Z" fill="black" stroke="black" stroke-width="0.52614"/>
<path d="M50 58L44 47L46.5 46L47 47L52 56" fill="#3D3B3C"/>
<path d="M50.0006 58C50.0006 58 51.3714 57.3244 51.8464 57.2854C52.3214 57.2463 53 57.1905 53 57.1905C53 57.1905 52.3027 54.504 51.1201 55.0813C49.9375 55.6587 50.0006 58 50.0006 58V58Z" fill="black" stroke="black" stroke-width="0.52614"/>
<path d="M36 52C36 52 30.8374 57.1071 31.0039 58.6092C31.1008 59.4824 32.717 61.0155 34.0535 62.1461C35.0161 62.9605 33.5372 65 33.5372 65" stroke="black"/>
<path d="M30 49C30 49 26.4545 50 25.9091 51.7143C25.6056 52.6681 26.1577 55.3716 25.7234 57.0895C25.3772 58.4592 24 59 24 59" stroke="black"/>
<path d="M27 44C25.1667 44.4444 21.8056 44.5926 20.8889 46.2223C20.3599 47.1627 19.7857 49.675 18.5722 51.0117C17.6828 51.9913 16 52 16 52" stroke="black"/>
<path d="M53 45C53 45 58.2535 45.147 59.3042 46.0289C59.8789 46.5114 60.1393 48.0934 60.2572 49.4278C60.3549 50.5327 62 51 62 51" stroke="black"/>
<path d="M54 40.0122C54 40.0122 56.8047 39.8631 57.8732 40.6084C58.5679 41.0929 59.5449 43.0267 60.1434 44.3203C60.4654 45.0163 62 45 62 45" stroke="black"/>
<path d="M35.5562 28.4591C40.2916 26.8084 45.4668 29.8373 45.9418 33.9065C46.5108 38.7802 42.8208 42.6554 38.6235 42.9856C35.1596 43.258 29.6908 39.6291 30.0137 35.6674C30.3366 31.7057 33.5113 28.8993 35.5562 28.4591Z" fill="white"/>
<path d="M37.1724 28.0002C36.2808 28.0048 35.655 28.3625 34.7603 28.6793C33.3694 28.9834 31.1944 30.8699 30 33C30.1397 32.81 30.2704 31.9335 30.4193 31.7597C30.6938 31.4395 30.981 31.1502 31.2748 30.8887C31.5686 30.6271 31.8698 30.3933 32.1671 30.1953C32.4645 29.9973 32.7608 29.8336 33.0461 29.704C33.3314 29.5745 33.6037 29.4816 33.8613 29.4253C34.1595 29.3197 34.4599 29.233 34.7603 29.164C35.0607 29.0949 35.3627 29.0416 35.6627 29.0072C35.9628 28.9728 36.2612 28.9564 36.5585 28.9549C36.8557 28.9534 37.1523 28.9672 37.4441 28.9967C37.7359 29.0263 38.0223 29.0704 38.3063 29.1291C38.5902 29.1879 38.8715 29.2625 39.1449 29.3486C39.4184 29.4348 39.6862 29.533 39.9467 29.6448C40.2072 29.7566 40.4599 29.8821 40.7049 30.0176C40.9498 30.1532 41.1858 30.2991 41.4127 30.4566C41.6397 30.6141 41.8571 30.7807 42.0635 30.9584C42.2699 31.136 42.4673 31.3234 42.6506 31.5193C42.8339 31.7153 43.0028 31.9201 43.1605 32.1326C43.3182 32.345 43.4638 32.5674 43.5933 32.7946C43.7228 33.0217 43.8366 33.2549 43.9355 33.4949C44.0343 33.7349 44.1181 33.9825 44.1837 34.2336C44.2494 34.4846 44.298 34.7398 44.328 35.0001C44.3638 35.3118 44.3818 35.6203 44.385 35.9234C44.3882 36.2265 44.3756 36.5221 44.3481 36.8154C44.3206 37.1086 44.277 37.3974 44.2206 37.6795C44.1642 37.9615 44.0961 38.2391 44.0126 38.5087C43.9291 38.7784 43.8328 39.0403 43.7241 39.2962C43.6215 39.5378 43.5054 39.7717 43.3819 40C44.5582 38.3941 45.2046 36.3281 44.9418 34.0419C44.5529 30.6582 41.0363 27.9805 37.1724 28.0002Z" fill="white" fill-opacity="0.5"/>
<path d="M35.267 28.6242C35.267 28.6242 35.3614 28.5857 35.5397 28.5227C35.718 28.4598 35.9807 28.3729 36.3195 28.2868C36.6582 28.2007 37.0735 28.1158 37.5524 28.0611C38.0312 28.0063 38.5737 27.9819 39.1586 28.015C39.7262 28.0471 40.3329 28.1326 40.9512 28.2868C41.5695 28.441 42.1994 28.6641 42.809 28.9607C43.3409 29.2183 43.8584 29.5341 44.3361 29.9041C44.8138 30.2741 45.2515 30.6982 45.6283 31.1645C46.0118 31.6383 46.3233 32.1595 46.5484 32.6959C46.7734 33.2324 46.9119 33.7838 46.9662 34.3177C47.0376 35.0648 46.9902 35.7543 46.8777 36.3318C46.8018 36.7213 46.6561 37.2961 46.3813 37.9553C46.1941 38.4028 45.9476 38.8859 45.6368 39.3713C45.326 39.8567 44.951 40.3441 44.52 40.8048C44.397 40.9363 44.2695 41.0657 44.138 41.1924C43.8356 41.4837 43.5053 41.7748 43.1376 42.0578C42.7699 42.3409 42.3648 42.6159 41.9144 42.8693C41.464 43.1228 40.9684 43.3547 40.4231 43.5446C39.8778 43.7346 39.2827 43.8828 38.6393 43.9608C38.1211 44.0187 37.583 44.012 37.0371 43.9435C36.4911 43.8749 35.9373 43.7443 35.3926 43.5624C34.506 43.2727 33.6066 42.8479 32.7457 42.267C32.5628 42.1435 32.3854 42.0165 32.2136 41.8864C31.7168 41.5132 31.2614 41.1069 30.8596 40.6741C30.4578 40.2413 30.1095 39.782 29.8211 39.3029C29.5252 38.8097 29.3004 38.2888 29.1599 37.7579C29.0126 37.1999 28.9689 36.636 29.0212 36.0968C29.0824 35.5017 29.2061 34.9468 29.3691 34.4345C29.5321 33.9223 29.7344 33.4527 29.9583 33.0249C30.406 32.1694 30.9367 31.4825 31.4582 30.9348C31.8036 30.5706 32.1472 30.2645 32.4745 30.0077C32.8017 29.7509 33.1127 29.5432 33.3976 29.3737C33.6927 29.196 33.9657 29.0586 34.205 28.955C34.4444 28.8514 34.6502 28.7808 34.8161 28.7314C34.982 28.6819 35.1081 28.6532 35.1919 28.6354C35.2758 28.6176 35.3174 28.6106 35.3174 28.6106C35.3174 28.6106 35.2766 28.6221 35.1951 28.6485C35.1136 28.6748 34.9915 28.7161 34.833 28.7812C34.6745 28.8462 34.4796 28.9354 34.2559 29.0593C34.0322 29.1832 33.7798 29.3425 33.5083 29.5417C32.9857 29.9227 32.3763 30.4587 31.7761 31.2101C31.3247 31.7747 30.8788 32.4661 30.5251 33.2952C30.3482 33.7098 30.1951 34.1583 30.0818 34.6383C29.9686 35.1183 29.8951 35.6299 29.882 36.1666C29.8711 36.6075 29.9432 37.0655 30.0957 37.5136C30.2413 37.9424 30.4623 38.3638 30.742 38.768C31.0155 39.1642 31.3444 39.5409 31.7221 39.8958C32.0998 40.2507 32.5264 40.5838 32.9897 40.8935C33.151 41.0005 33.3166 41.1044 33.4866 41.2046C34.2849 41.6754 35.0784 42.0388 35.8525 42.3117C36.3326 42.4772 36.7995 42.6132 37.2496 42.7035C37.6997 42.7937 38.1332 42.8383 38.5498 42.8274C39.1104 42.8167 39.6469 42.7477 40.1524 42.636C40.6579 42.5242 41.1323 42.3695 41.5697 42.1829C42.4445 41.8097 43.1704 41.3092 43.7103 40.7481C43.8223 40.6317 43.9283 40.5115 44.028 40.3886C44.3974 39.9328 44.679 39.4398 44.8802 38.9615C45.0813 38.4832 45.2028 38.0201 45.2744 37.6087C45.3813 36.9994 45.3825 36.5025 45.4111 36.1751C45.4535 35.6918 45.4751 35.1221 45.4239 34.4968C45.3954 34.1055 45.3086 33.6885 45.1573 33.2644C45.006 32.8403 44.7903 32.4095 44.5166 31.9982C44.245 31.5913 43.915 31.2032 43.5407 30.8463C43.1664 30.4894 42.7481 30.164 42.3061 29.8792C41.7997 29.5536 41.261 29.2821 40.7174 29.0684C40.1739 28.8546 39.6258 28.6988 39.1006 28.5945C38.5609 28.4873 38.0451 28.4353 37.58 28.4197C37.1149 28.404 36.7005 28.4244 36.3569 28.4569C36.0135 28.4895 35.7407 28.5338 35.5542 28.5676C35.3677 28.6014 35.267 28.6242 35.267 28.6242Z" fill="black" stroke="black" stroke-width="0.52614"/>
<path d="M51.3124 30.0001C50.4144 30.0001 50 31.1848 50 32.1498C50 33.1148 50.3519 34 51.2499 34C52.1478 34 53 33.014 53 32.0489C53 31.0839 52.2103 30 51.3124 30V30.0001Z" fill="black"/>
<path d="M41.3079 34C40.2028 34 39 35.324 39 36.5405C39 37.757 39.741 39 40.8461 39C41.9512 39 43 37.757 43 36.5405C43 35.324 42.4129 34 41.3079 34Z" fill="black"/>
<path d="M49.6927 58.2837C49.1927 57.7837 46.3896 51.4064 44 48C43.727 47.6109 43.7842 47.5438 43.5 47C43.7843 46.5438 43.8047 46.6449 44.0369 46.6448C44.0369 46.6448 49.0476 54.0254 49.6927 57.2837C49.9151 58.6597 49.6927 58.2837 49.6927 58.2837Z" fill="black"/>
<path d="M47.0001 46C47.0001 46 47.699 47.2181 48.1978 48.3335C49.6017 51.3672 51.3266 53.9755 53 56.8778C52.9981 56.8758 52.5 57.1262 52 56.5C50.6564 54.8173 47.0746 48.615 46.5 46.5C46.1938 45.3123 47.0001 46 47.0001 46Z" fill="black"/>
<path d="M42.4288 35C42.1526 35 42 35.4093 42 35.6048C42 35.8003 42.1852 36 42.4615 36C42.7378 36 43 35.8003 43 35.6048C43 35.4093 42.7051 35 42.4288 35Z" fill="white"/>
<path d="M52.397 31C52.0761 31 52 31.3608 52 31.5897C52 31.8186 52.2697 32 52.5906 32C52.9114 32 53 31.7148 53 31.4859C53 31.2571 52.7178 31 52.397 31V31Z" fill="white"/>
<path d="M29.042 45C28.2274 45 27.8615 46.0507 28.0475 46.7294C28.2688 47.5368 28.7068 48 29.5215 48C30.3361 48 31 47.4309 31 46.7294C31 46.0278 29.8568 45 29.042 45Z" fill="#C1BDB3"/>
<path d="M33.0261 46C32.4789 46 31.8921 46.2246 32.017 46.4946C32.1656 46.8157 32.4598 47 33.007 47C33.5541 47 34 46.7736 34 46.4946C34 46.2155 33.5733 46 33.0261 46Z" fill="#D9DEE6"/>
<path d="M31.9732 48C31.4264 48 30.8935 48.3762 31.0184 48.5934C31.1669 48.8518 31.4609 49 32.0076 49C32.5544 49 33 48.8179 33 48.5934C33 48.3689 32.52 48 31.9732 48Z" fill="#3D3B3C"/>
</g>
<defs>
<filter id="filter0_d" x="0.736931" y="0.736923" width="61.4008" height="68.5564" filterUnits="userSpaceOnUse" color-interpolation-filters="sRGB">
<feFlood flood-opacity="0" result="BackgroundImageFix"/>
<feColorMatrix in="SourceAlpha" type="matrix" values="0 0 0 0 0 0 0 0 0 0 0 0 0 0 0 0 0 0 127 0"/>
<feOffset dy="4"/>
<feColorMatrix type="matrix" values="0 0 0 0 0 0 0 0 0 0 0 0 0 0 0 0 0 0 0.25 0"/>
<feBlend mode="normal" in2="BackgroundImageFix" result="effect1_dropShadow"/>
<feBlend mode="normal" in="SourceGraphic" in2="effect1_dropShadow" result="shape"/>
</filter>
</defs>
</svg>
